<svg width="547.9775878906249px" height="242.0199951171875px" xmlns="http://www.w3.org/2000/svg" viewBox="-23.988793945312466 -46.00999755859375 547.9775878906249 242.0199951171875" style="background: rgba(0, 0, 0, 0);" preserveAspectRatio="xMidYMid"><defs><filter id="editing-jagged" x="-100%" y="-100%" width="300%" height="300%"><feTurbulence result="turb" baseFrequency="0.1" numOctaves="1" seed="1"></feTurbulence><feDisplacementMap in="SourceGraphic" in2="turb" scale="10"></feDisplacementMap></filter></defs><g filter="url(#editing-jagged)"><g transform="translate(56.6599999666214, 135.20000076293945)"><path d="M66.08-74.20L66.08-74.20L66.08-74.20Q54.74-74.20 46.48-77.98L46.48-77.98L42.00-55.30L69.02-55.30L69.02-55.30Q69.02-47.88 65.31-43.19L65.31-43.19L65.31-43.19Q61.60-38.50 54.88-38.50L54.88-38.50L54.88-38.50Q47.60-38.50 40.88-41.16L40.88-41.16L40.88-41.16Q39.48-41.72 39.34-41.86L39.34-41.86L31.36 0L0.84 0L18.62-92.40L81.06-92.40L81.06-92.40Q81.06-83.86 77.07-79.03L77.07-79.03L77.07-79.03Q73.08-74.20 66.08-74.20ZM107.10 2.80L107.10 2.80L107.10 2.80Q76.30 2.80 76.30-26.18L76.30-26.18L76.30-26.18Q76.30-46.76 87.64-60.06L87.64-60.06L87.64-60.06Q99.68-74.20 120.54-74.20L120.54-74.20L120.54-74.20Q135.66-74.20 143.36-67.20L143.36-67.20L143.36-67.20Q151.06-60.20 151.06-45.50L151.06-45.50L151.06-45.50Q151.06-23.10 139.02-10.08L139.02-10.08L139.02-10.08Q127.26 2.80 107.10 2.80ZM110.74-58.10L110.74-58.10L110.74-58.10Q109.06-54.32 107.73-48.65L107.73-48.65L107.73-48.65Q106.40-42.98 104.72-34.02L104.72-34.02L104.72-34.02Q103.04-25.06 103.04-14.00L103.04-14.00L103.04-14.00Q103.04-10.36 104.23-7.98L104.23-7.98L104.23-7.98Q105.42-5.60 108.64-5.60L108.64-5.60L108.64-5.60Q111.86-5.60 113.89-7.14L113.89-7.14L113.89-7.14Q115.92-8.68 117.46-12.32L117.46-12.32L117.46-12.32Q120.26-18.76 122.50-30.73L122.50-30.73L122.50-30.73Q124.74-42.70 124.95-47.88L124.95-47.88L124.95-47.88Q125.16-53.06 125.16-56.91L125.16-56.91L125.16-56.91Q125.16-60.76 124.04-63.28L124.04-63.28L124.04-63.28Q122.92-65.80 119.77-65.80L119.77-65.80L119.77-65.80Q116.62-65.80 114.52-63.84L114.52-63.84L114.52-63.84Q112.42-61.88 110.74-58.10ZM203.14-39.34L203.14-39.34L203.14-39.34Q208.18-48.30 208.18-57.40L208.18-57.40L208.18-57.40Q208.18-63.42 203.84-63.42L203.84-63.42L203.84-63.42Q200.48-63.42 196.98-57.68L196.98-57.68L196.98-57.68Q193.34-51.94 192.22-44.52L192.22-44.52L184.94 0L155.96 2.80L170.24-71.40L193.34-74.20L190.82-60.06L190.82-60.06Q197.68-74.20 213.08-74.20L213.08-74.20L213.08-74.20Q221.20-74.20 225.61-70L225.61-70L225.61-70Q230.02-65.80 230.02-57.19L230.02-57.19L230.02-57.19Q230.02-48.58 224.35-43.12L224.35-43.12L224.35-43.12Q218.68-37.66 209.02-37.66L209.02-37.66L209.02-37.66Q204.82-37.66 203.14-39.34ZM242.20-58.52L242.20-58.52L242.20-58.52Q246.96-65.24 254.17-69.72L254.17-69.72L254.17-69.72Q261.38-74.20 270.20-74.20L270.20-74.20L270.20-74.20Q279.02-74.20 283.22-71.40L283.22-71.40L310.66-74.20L301.14-20.44L301.14-20.44Q296.24 7.00 285.88 17.78L285.88 17.78L285.88 17.78Q275.94 28.00 256.62 28.00L256.62 28.00L256.62 28.00Q241.92 28.00 233.52 23.38L233.52 23.38L233.52 23.38Q225.12 18.76 225.12 11.06L225.12 11.06L225.12 11.06Q225.12 5.32 229.46 2.03L229.46 2.03L229.46 2.03Q233.80-1.26 240.52-1.26L240.52-1.26L240.52-1.26Q246.40-1.26 250.88 1.40L250.88 1.40L250.88 1.40Q253.54 2.80 254.80 4.76L254.80 4.76L254.80 4.76Q251.58 7.56 251.58 12.18L251.58 12.18L251.58 12.18Q251.58 18.20 257.18 18.20L257.18 18.20L257.18 18.20Q266.56 18.20 271.88-3.92L271.88-3.92L271.88-3.92Q273.42-9.94 274.68-15.96L274.68-15.96L274.68-15.96Q268.38-8.26 254.10-8.26L254.10-8.26L254.10-8.26Q244.16-8.26 238.42-13.02L238.42-13.02L238.42-13.02Q232.68-17.78 232.68-28.98L232.68-28.98L232.68-28.98Q232.68-35.98 235.06-43.89L235.06-43.89L235.06-43.89Q237.44-51.80 242.20-58.52ZM260.40-28.56L260.40-28.56L260.40-28.56Q260.40-19.04 265.30-19.04L265.30-19.04L265.30-19.04Q268.66-19.04 271.88-22.68L271.88-22.68L271.88-22.68Q274.40-25.62 275.38-29.96L275.38-29.96L282.52-65.94L282.52-65.94Q281.82-66.08 281.12-66.36L281.12-66.36L281.12-66.36Q279.72-66.92 277.90-66.92L277.90-66.92L277.90-66.92Q269.36-66.92 264.32-52.92L264.32-52.92L264.32-52.92Q260.40-42.00 260.40-28.56ZM372.82-23.66L372.82-23.66L372.82-23.66Q376.32-21.28 376.32-16.03L376.32-16.03L376.32-16.03Q376.32-10.78 373.66-7.42L373.66-7.42L373.66-7.42Q371-4.06 366.66-1.82L366.66-1.82L366.66-1.82Q357.70 2.80 348.04 2.80L348.04 2.80L348.04 2.80Q338.38 2.80 332.71 0.70L332.71 0.70L332.71 0.70Q327.04-1.40 323.26-5.32L323.26-5.32L323.26-5.32Q315.84-12.74 315.84-26.32L315.84-26.32L315.84-26.32Q315.84-47.46 327.32-60.34L327.32-60.34L327.32-60.34Q339.64-74.20 361.06-74.20L361.06-74.20L361.06-74.20Q374.36-74.20 380.94-68.60L380.94-68.60L380.94-68.60Q385.84-64.40 385.84-57.54L385.84-57.54L385.84-57.54Q385.84-32.90 343.28-32.90L343.28-32.90L343.28-32.90Q342.72-29.26 342.72-26.18L342.72-26.18L342.72-26.18Q342.72-19.74 345.59-17.29L345.59-17.29L345.59-17.29Q348.46-14.84 353.78-14.84L353.78-14.84L353.78-14.84Q359.10-14.84 364.77-17.29L364.77-17.29L364.77-17.29Q370.44-19.74 372.82-23.66ZM344.26-38.92L344.26-38.92L344.26-38.92Q354.20-38.92 359.94-45.08L359.94-45.08L359.94-45.08Q365.68-50.96 365.68-60.34L365.68-60.34L365.68-60.34Q365.68-63.56 364.49-65.31L364.49-65.31L364.49-65.31Q363.30-67.06 360.92-67.06L360.92-67.06L360.92-67.06Q358.54-67.06 356.51-66.15L356.51-66.15L356.51-66.15Q354.48-65.24 352.38-62.16L352.38-62.16L352.38-62.16Q347.20-55.16 344.26-38.92Z" fill="#fff"></path></g></g><style>text {
  font-size: 64px;
  font-family: Arial Black;
  dominant-baseline: central;
  text-anchor: middle;
}</style></svg>
