<svg xmlns="http://www.w3.org/2000/svg" viewBox="0 0 24 24"><path d="M5.661 20.961c-.113 0-.224-.018-.331-.055-.281-.095-.512-.315-.623-.59l-3.571-6.203c-.22-.39-.24-.796-.054-1.114.188-.322.539-.5.988-.5h3.99c.484.027.915.273 1.168.659l1.365 2.366c.002.004.011.021.014.025.208.411.208.903 0 1.315l-1.993 3.45c-.094.235-.271.426-.499.538-.143.073-.296.109-.454.109zm-3.702-7.449c.006.024.019.06.045.106l3.589 6.235c.016.028.03.058.04.088l.018.018.272.063-.237-.08c.01-.031.024-.062.041-.09l2-3.461c.053-.106.051-.26-.012-.387l-1.339-2.322c-.065-.098-.197-.172-.338-.182H2.07c-.052 0-.088.006-.111.012zM2.07 11.5c-.446 0-.807-.184-.992-.504-.185-.321-.164-.726.059-1.112l3.57-6.203c.094-.235.271-.426.499-.538.144-.072.297-.108.455-.108.112 0 .224.018.331.055.281.095.512.315.623.589 0 0 1.989 3.445 1.991 3.449.209.414.209.906.001 1.318l-1.363 2.368c-.264.406-.693.658-1.154.685l-4.02.001zm-.113-1.012c.024.006.06.012.113.012h3.99c.12-.008.253-.087.331-.208l1.336-2.321c.053-.107.052-.26-.011-.388l-1.987-3.44c-.016-.027-.029-.057-.04-.088L5.75 3.8l-.08.237-.01-.002c-.004 0-.008.001-.012.003-.024.048-.038.078-.054.106l-3.591 6.239c-.026.045-.04.081-.046.105zM10.636 7.288c-.47-.026-.902-.272-1.155-.659L7.467 3.144c-.223-.386-.245-.791-.06-1.112.186-.32.547-.504.993-.504h7.2c.446 0 .807.184.992.505.185.32.163.725-.059 1.111l-2 3.461c-.265.406-.694.656-1.155.682l-2.728.001h-.014zM8.287 2.541c.006.023.02.058.046.103l2 3.461c.067.101.202.176.345.184l2.672-.001c.12-.007.253-.087.332-.207l1.985-3.437c.026-.045.039-.08.046-.104-.023-.006-.06-.012-.113-.012H8.4c-.052 0-.089.006-.113.013zM17.94 11.498c-.483-.027-.915-.273-1.168-.659L15.407 8.47c-.219-.432-.222-.928-.013-1.341l1.993-3.45c.094-.235.271-.425.499-.538.143-.071.296-.107.454-.107.112 0 .224.019.331.055.281.095.512.315.623.589l3.571 6.202c.222.387.243.792.058 1.113-.185.32-.546.504-.991.504H17.94zm.4-7.462c-.004 0-.008.001-.013.003-.024.047-.037.076-.053.103l-2.001 3.463c-.054.108-.052.262.013.39l1.337 2.32c.067.1.202.175.345.183l3.963-.001c.052 0 .089-.006.112-.012-.006-.024-.019-.059-.046-.105l-3.591-6.237c-.016-.026-.029-.056-.04-.087 0 0-.018-.02-.019-.02h-.007zM18.34 20.959c-.113 0-.224-.018-.331-.055-.281-.095-.512-.314-.623-.589l-1.98-3.426c-.219-.432-.221-.929-.013-1.341l1.363-2.368c.268-.406.697-.654 1.158-.679h4.016c.445 0 .807.184.992.505.185.321.163.726-.059 1.111l-3.57 6.198c-.095.235-.271.426-.499.538-.143.07-.296.106-.454.106zm-.392-7.459c-.133.009-.264.088-.342.205l-1.333 2.317c-.054.108-.051.263.013.392l1.987 3.436c.016.029.03.058.04.088 0 0 .018.018.018.019h.006c.013 0 .024-.005.029-.018.011-.033.025-.062.042-.091l3.59-6.232c.028-.048.041-.084.047-.108-.019-.002-.057-.009-.114-.009h-3.983zM8.4 22.466c-.446 0-.807-.184-.992-.504-.185-.321-.163-.726.06-1.112l2-3.461c.264-.406.694-.657 1.155-.682l2.727-.001c.484.026.915.272 1.168.66l2.015 3.484c.223.386.244.791.059 1.112-.185.321-.547.504-.992.504H8.4zm-.113-1.012c.023.006.06.012.113.012h7.2c.052 0 .089-.006.113-.012-.006-.023-.02-.058-.046-.104l-2-3.461c-.066-.099-.198-.174-.338-.184h-2.678c-.12.007-.253.087-.332.207L8.333 21.35c-.026.045-.04.08-.046.104z"/></svg>