
<svg xmlns="http://www.w3.org/2000/svg" viewBox="0 0 24 24"><path d="M8 24c-.134 0-.259-.052-.354-.146l-1.5-1.5C6.052 22.259 6 22.134 6 22v-1.293l-.854-.854c-.195-.195-.195-.512 0-.707L6 18.293v-.586l-.854-.854c-.195-.195-.195-.512 0-.707L6 15.293v-.641c-2.366-.84-4.002-3.141-4-5.662.002-3.139 2.4-5.718 5.5-5.973V2.5C7.5 1.121 8.621 0 10 0s2.5 1.121 2.5 2.5v1.756c.932.039 1.848.297 2.662.75 1.4.78 2.413 2.059 2.851 3.6.402 1.413.275 2.905-.355 4.223l5.196 5.196c.094.095.146.22.146.354V20.5c0 .276-.224.5-.5.5h-2.121c-.127 0-.249-.048-.342-.135L19.119 20H18c-.276 0-.5-.224-.5-.5v-1.275L17.286 18H16c-.276 0-.5-.224-.5-.5v-1.275l-.65-.577c-.806.387-1.702.591-2.605.591-.768 0-1.536-.148-2.245-.432V22c0 .134-.052.259-.146.354l-1.5 1.5c-.095.094-.22.146-.354.146zm0-1.207l1-1v-7.506c0-.222.15-.42.364-.481C11.503 13.2 12.998 11.223 13 9c.002-2.584-1.954-4.72-4.5-4.972V5.05c1.155.234 2 1.25 2 2.449 0 1.379-1.121 2.5-2.5 2.5s-2.5-1.121-2.5-2.5c0-1.199.845-2.215 2-2.449V4.027C4.958 4.279 3.002 6.411 3 8.991c-.002 2.227 1.494 4.207 3.636 4.815.214.061.364.259.364.481V15.5c0 .134-.052.259-.146.354l-.647.646.646.646c.095.095.147.22.147.354v1c0 .134-.052.259-.146.354l-.647.646.646.646c.095.095.147.22.147.354v1.293l1 1zM22 20v-1.414l-5.308-5.307c-.157-.157-.191-.403-.083-.597.65-1.166.807-2.516.441-3.801-.365-1.285-1.209-2.35-2.375-3-.619-.345-1.282-.549-1.977-.61C13.543 6.33 14.001 7.634 14 9c-.002 2.516-1.638 4.813-4 5.652v.059c.692.346 1.466.528 2.247.528.855 0 1.697-.218 2.435-.629.075-.042.159-.063.244-.063.122 0 .24.044.332.125l1.075.954c.106.094.167.231.167.374v1h1c.136 0 .268.057.362.155l.5.525c.089.093.138.215.138.345V19h.817c.127 0 .249.048.342.135l.918.865H22zM7.5 6.086c-.586.209-1 .772-1 1.412 0 .827.673 1.5 1.5 1.5s1.5-.673 1.5-1.5c0-.64-.414-1.203-1-1.412V7c0 .276-.224.5-.5.5s-.5-.224-.5-.5v-.914zm1-3.069c1.089.09 2.115.469 3 1.108V2.5c0-.827-.673-1.5-1.5-1.5s-1.5.673-1.5 1.5v.517z"/></svg>