<svg xmlns="http://www.w3.org/2000/svg" viewBox="0 0 24 24"><path d="M19.499 16.5c-.134 0-.259-.052-.354-.146-.195-.195-.195-.512 0-.707l3.146-3.146H11.499c-.276 0-.5-.224-.5-.5s.224-.5.5-.5h10.793l-3.146-3.146c-.195-.195-.195-.512 0-.707.094-.096.22-.148.353-.148s.259.052.354.146l4 4c.046.046.083.101.109.163.05.121.05.261 0 .382-.025.061-.062.116-.109.162l-3.999 4c-.096.095-.221.147-.355.147z"/><path d="M9.001 24c-.073 0-.146-.008-.217-.024L.783 22.199c-.461-.102-.783-.503-.784-.975V2.778c0-.473.323-.874.784-.976l8-1.778C8.854.008 8.927 0 8.999 0c.551 0 1 .448 1 1v1h7c.552 0 1 .449 1 1v2.5c0 .276-.224.5-.5.5s-.5-.224-.5-.5V3h-7v18h7v-2.5c0-.276.224-.5.5-.5s.5.224.5.5V21c0 .552-.448 1-1 1h-7v1c0 .072-.008.144-.024.215-.058.261-.214.484-.439.628-.16.103-.345.157-.535.157zM1 2.778v18.445L9 23V1L1 2.778z"/><path d="M5.999 14c-1.103 0-2-.897-2-2s.897-2 2-2 2 .897 2 2-.897 2-2 2zm0-3c-.551 0-1 .449-1 1 0 .552.449 1 1 1s1-.448 1-1c0-.551-.448-1-1-1z"/></svg>