
<svg xmlns="http://www.w3.org/2000/svg" viewBox="0 0 24 24"><path d="M11 13c-3.584 0-6.5-2.916-6.5-6.5S7.416 0 11 0c.276 0 .5.224.5.5v12c0 .276-.224.5-.5.5zm-.5-11.978c-2.824.253-5 2.611-5 5.478s2.176 5.224 5 5.478V1.022zM1.5 24c-.276 0-.5-.224-.5-.5 0-5.514 4.486-10 10-10 .276 0 .5.224.5.5v9.5c0 .276-.224.5-.5.5H1.5zm9-1v-8.486c-4.576.251-8.235 3.91-8.486 8.486H10.5zM13 13c-.274 0-.499-.223-.5-.497-.001-.276.222-.501.497-.503.167-.001.335-.01.503-.026V10.88c0-.235.16-.435.388-.487.438-.1.852-.273 1.231-.514.081-.051.173-.078.268-.078.134 0 .259.052.354.146l.775.776c.257-.214.493-.45.707-.707l-.776-.776c-.167-.167-.195-.423-.068-.622.241-.379.414-.793.514-1.231.052-.227.253-.387.487-.387h1.094c.016-.167.025-.336.026-.503-.001-.164-.01-.33-.026-.497H17.38c-.234 0-.435-.16-.487-.388-.101-.438-.274-.852-.514-1.231-.125-.196-.096-.457.068-.622l.776-.776c-.214-.257-.45-.493-.707-.707l-.774.776c-.096.096-.222.148-.355.148-.095 0-.187-.027-.268-.077-.38-.241-.794-.414-1.232-.515-.228-.053-.387-.254-.387-.488V1.026c-.168-.016-.336-.025-.503-.026-.276-.002-.499-.227-.497-.503.001-.274.226-.497.5-.497.365.002.729.035 1.086.098.24.041.414.248.414.492v1.149c.277.088.547.201.804.336l.813-.815c.095-.095.22-.147.354-.147.104 0 .205.032.29.093.594.422 1.109.938 1.532 1.531.142.2.119.47-.054.643l-.815.815c.137.258.249.527.337.805h1.149c.243 0 .45.174.493.414.062.359.095.723.097 1.083-.002.365-.035.73-.097 1.089-.043.24-.25.414-.493.414h-1.149c-.088.278-.201.547-.336.805l.815.815c.173.173.196.444.054.643-.423.594-.938 1.109-1.532 1.532-.085.06-.185.093-.29.093-.134 0-.26-.052-.354-.147l-.814-.814c-.258.135-.527.248-.805.336v1.148c0 .243-.174.45-.414.493-.359.062-.724.095-1.083.097H13z"/><path d="M13 9c-.276 0-.5-.224-.5-.5s.224-.5.5-.5c.827 0 1.5-.673 1.5-1.5S13.827 5 13 5c-.276 0-.5-.224-.5-.5s.224-.5.5-.5c1.378 0 2.5 1.121 2.5 2.5S14.378 9 13 9zM22.5 24c-.274 0-.498-.223-.5-.497-.002-.333-.024-.669-.063-1.003h-1.588c-.236 0-.442-.168-.49-.399-.125-.605-.33-1.191-.61-1.741-.099-.194-.061-.427.093-.58l1.19-1.189c-.552-.848-1.236-1.589-2.035-2.208l-1.138 1.139c-.094.094-.22.146-.354.146-.095 0-.188-.027-.269-.078-.577-.367-1.204-.646-1.865-.829-.216-.06-.367-.258-.367-.482v-1.65c-.495-.085-1-.128-1.504-.129-.134 0-.259-.052-.354-.147-.094-.094-.146-.22-.146-.354 0-.275.225-.499.5-.499.709.001 1.419.077 2.11.226.229.049.395.255.395.489v1.692c.493.162.97.374 1.423.63l1.166-1.167c.094-.094.22-.146.354-.146.104 0 .203.031.288.091 1.169.822 2.132 1.863 2.861 3.093.117.197.085.447-.077.609l-1.22 1.219c.184.407.333.831.447 1.264h1.625c.246 0 .453.176.493.418.087.521.133 1.052.137 1.579.002.276-.221.501-.497.503H22.5zM17 24c-.276 0-.5-.224-.5-.5 0-1.93-1.57-3.5-3.5-3.5-.276 0-.5-.224-.5-.5s.224-.5.5-.5c2.481 0 4.5 2.019 4.5 4.5 0 .276-.224.5-.5.5z"/></svg>