
<svg xmlns="http://www.w3.org/2000/svg" viewBox="0 0 24 24"><path d="M12 10c-2.068 0-3.75-1.682-3.75-3.75S9.932 2.5 12 2.5s3.75 1.682 3.75 3.75S14.068 10 12 10zm0-6.5c-1.516 0-2.75 1.234-2.75 2.75S10.484 9 12 9s2.75-1.234 2.75-2.75S13.516 3.5 12 3.5z"/><path d="M12 24C5.383 24 0 18.617 0 12S5.383 0 12 0s12 5.383 12 12-5.383 12-12 12zm0-23C5.935 1 1 5.935 1 12s4.935 11 11 11 11-4.935 11-11S18.065 1 12 1z"/><path d="M14.047 21.5c-.031 0-.063-.003-.094-.009-.129-.023-.243-.097-.319-.207-.076-.11-.104-.243-.08-.374l.455-2.5c.042-.237.249-.41.491-.41H16v-2.5c0-2.206-1.794-4-4-4s-4 1.794-4 4V18h1.5c.242 0 .449.173.492.411l.455 2.5c.049.271-.131.532-.402.581a.5195.5195 0 0 1-.09.008c-.242 0-.448-.173-.492-.411L9.083 19H7.5c-.276 0-.5-.224-.5-.5v-3c0-2.757 2.243-5 5-5s5 2.243 5 5v3c0 .276-.224.5-.5.5h-1.583l-.38 2.089c-.043.238-.249.411-.49.411z"/></svg>